<svg width="837" height="720" viewBox="0 0 837 720" fill="none" xmlns="http://www.w3.org/2000/svg">
<g filter="url(#filter0_d_662_1702)">
<rect x="459" width="374" height="483" rx="27" fill="#222222"/>
</g>
<path d="M673.498 270.185L683.436 233.251L653.622 211.843L643.463 248.777L673.498 270.185Z" fill="white"/>
<path d="M673.498 270.185L683.436 233.251L653.622 211.843L643.463 248.777L673.498 270.185Z" fill="white"/>
<path d="M609.675 325.703C605.059 325.703 601.108 324.096 597.822 320.881C594.534 317.666 592.891 313.627 592.891 308.765V241.014L622.483 325.703H609.675Z" fill="white"/>
<path d="M609.675 325.703C605.059 325.703 601.108 324.096 597.822 320.881C594.534 317.666 592.891 313.627 592.891 308.765V241.014L622.483 325.703H609.675Z" fill="white"/>
<path d="M576.99 307.354L570.385 303.719C566.249 301.751 563.445 298.65 561.973 294.415C560.501 290.181 560.699 285.88 562.569 281.512L576.99 248.542V307.354Z" fill="white"/>
<path d="M576.99 307.354L570.385 303.719C566.249 301.751 563.445 298.65 561.973 294.415C560.501 290.181 560.699 285.88 562.569 281.512L576.99 248.542V307.354Z" fill="white"/>
<path fill-rule="evenodd" clip-rule="evenodd" d="M655.168 324.762C650.604 326.488 646.482 326.409 642.801 324.527C639.12 322.645 636.47 319.273 634.851 314.411L597.087 204.315C595.467 199.453 595.504 195.023 597.197 191.023C598.89 187.024 602.019 184.162 606.583 182.437L671.51 157.265C676.074 155.54 680.197 155.579 683.877 157.383C687.558 159.186 690.208 162.519 691.828 167.381L729.812 278.418C731.432 283.28 731.395 287.671 729.702 291.592C728.009 295.513 724.88 298.336 720.316 300.061L655.168 324.762ZM714.795 284.064L649.868 308.765L612.104 198.434L677.031 173.262L714.795 284.064Z" fill="white"/>
<path fill-rule="evenodd" clip-rule="evenodd" d="M655.168 324.762C650.604 326.488 646.482 326.409 642.801 324.527C639.12 322.645 636.47 319.273 634.851 314.411L597.087 204.315C595.467 199.453 595.504 195.023 597.197 191.023C598.89 187.024 602.019 184.162 606.583 182.437L671.51 157.265C676.074 155.54 680.197 155.579 683.877 157.383C687.558 159.186 690.208 162.519 691.828 167.381L729.812 278.418C731.432 283.28 731.395 287.671 729.702 291.592C728.009 295.513 724.88 298.336 720.316 300.061L655.168 324.762ZM714.795 284.064L649.868 308.765L612.104 198.434L677.031 173.262L714.795 284.064Z" fill="white"/>
<g filter="url(#filter1_d_662_1702)">
<rect x="4" y="113" width="374" height="483" rx="27" fill="white"/>
</g>
<g filter="url(#filter2_d_662_1702)">
<rect x="284" y="229" width="374" height="483" rx="27" fill="#FFCD2D"/>
</g>
<path fill-rule="evenodd" clip-rule="evenodd" d="M128 387.958V430.25H254V387.958C254 383.306 252.458 379.324 249.373 376.011C246.289 372.698 242.581 371.042 238.25 371.042H143.75C139.419 371.042 135.711 372.698 132.627 376.011C129.542 379.324 128 383.306 128 387.958ZM238.25 413.333H143.75V387.958H238.25V413.333ZM172.986 326.318C171.477 327.939 169.606 328.75 167.375 328.75C165.144 328.75 163.273 327.939 161.764 326.318C160.255 324.697 159.5 322.688 159.5 320.292C159.5 317.895 160.255 315.886 161.764 314.265C163.273 312.644 165.144 311.833 167.375 311.833C169.606 311.833 171.477 312.644 172.986 314.265C174.495 315.886 175.25 317.895 175.25 320.292C175.25 322.688 174.495 324.697 172.986 326.318ZM220.236 326.318C218.727 327.939 216.856 328.75 214.625 328.75C212.394 328.75 210.523 327.939 209.014 326.318C207.505 324.697 206.75 322.688 206.75 320.292C206.75 317.895 207.505 315.886 209.014 314.265C210.523 312.644 212.394 311.833 214.625 311.833C216.856 311.833 218.727 312.644 220.236 314.265C221.745 315.886 222.5 317.895 222.5 320.292C222.5 322.688 221.745 324.697 220.236 326.318Z" fill="#FFCD2D"/>
<path fill-rule="evenodd" clip-rule="evenodd" d="M167.375 362.583C156.481 362.583 147.195 358.46 139.517 350.213C131.839 341.966 128 331.992 128 320.292C128 308.591 131.839 298.617 139.517 290.37C147.195 282.123 156.481 278 167.375 278H214.625C225.519 278 234.805 282.123 242.483 290.37C250.161 298.617 254 308.591 254 320.292C254 331.992 250.161 341.966 242.483 350.213C234.805 358.46 225.519 362.583 214.625 362.583H167.375ZM214.625 345.667H167.375C160.812 345.667 155.234 343.2 150.641 338.266C146.047 333.332 143.75 327.34 143.75 320.292C143.75 313.243 146.047 307.252 150.641 302.318C155.234 297.384 160.812 294.917 167.375 294.917H214.625C221.188 294.917 226.766 297.384 231.359 302.318C235.953 307.252 238.25 313.243 238.25 320.292C238.25 327.34 235.953 333.332 231.359 338.266C226.766 343.2 221.188 345.667 214.625 345.667Z" fill="#FFCD2D"/>
<path fill-rule="evenodd" clip-rule="evenodd" d="M421 521.21V508.094C421 504.1 422.007 500.45 424.021 497.143C426.035 493.836 428.708 491.322 432.042 489.602C438.153 486.448 444.472 484.047 451 482.399C457.528 480.75 464.162 479.926 470.902 479.926C477.773 479.926 484.472 480.75 491 482.399C497.528 484.047 503.847 486.448 509.958 489.602C513.292 491.322 515.965 493.836 517.979 497.143C519.993 500.45 521 504.1 521 508.094V521.21H421ZM448.813 498.74C441.521 500.962 437.389 503.291 436.417 505.728H505.583C504.611 503.291 500.479 500.962 493.188 498.74C485.896 496.518 478.5 495.407 471 495.407C463.5 495.407 456.104 496.518 448.813 498.74ZM470.896 469.605C464.021 469.605 458.153 467.096 453.292 462.079C448.431 457.062 446 450.97 446 443.802C446 436.635 448.431 430.543 453.292 425.526C458.153 420.509 464.056 418 471 418C477.944 418 483.847 420.509 488.708 425.526C493.569 430.543 496 436.671 496 443.91C496 451.006 493.569 457.062 488.708 462.079C483.847 467.096 477.91 469.605 470.896 469.605ZM471 454.123C473.833 454.123 476.208 453.134 478.125 451.156C480.042 449.178 481 446.727 481 443.802C481 440.878 480.042 438.427 478.125 436.449C476.208 434.471 473.833 433.481 471 433.481C468.167 433.481 465.792 434.471 463.875 436.449C461.958 438.427 461 440.878 461 443.802C461 446.727 461.958 449.178 463.875 451.156C465.792 453.134 468.167 454.123 471 454.123Z" fill="#222222"/>
<path fill-rule="evenodd" clip-rule="evenodd" d="M421 521.21V508.094C421 504.1 422.007 500.45 424.021 497.143C426.035 493.836 428.708 491.322 432.042 489.602C438.153 486.448 444.472 484.047 451 482.399C457.528 480.75 464.162 479.926 470.902 479.926C477.773 479.926 484.472 480.75 491 482.399C497.528 484.047 503.847 486.448 509.958 489.602C513.292 491.322 515.965 493.836 517.979 497.143C519.993 500.45 521 504.1 521 508.094V521.21H421ZM448.813 498.74C441.521 500.962 437.389 503.291 436.417 505.728H505.583C504.611 503.291 500.479 500.962 493.188 498.74C485.896 496.518 478.5 495.407 471 495.407C463.5 495.407 456.104 496.518 448.813 498.74ZM470.896 469.605C464.021 469.605 458.153 467.096 453.292 462.079C448.431 457.062 446 450.97 446 443.802C446 436.635 448.431 430.543 453.292 425.526C458.153 420.509 464.056 418 471 418C477.944 418 483.847 420.509 488.708 425.526C493.569 430.543 496 436.671 496 443.91C496 451.006 493.569 457.062 488.708 462.079C483.847 467.096 477.91 469.605 470.896 469.605ZM471 454.123C473.833 454.123 476.208 453.134 478.125 451.156C480.042 449.178 481 446.727 481 443.802C481 440.878 480.042 438.427 478.125 436.449C476.208 434.471 473.833 433.481 471 433.481C468.167 433.481 465.792 434.471 463.875 436.449C461.958 438.427 461 440.878 461 443.802C461 446.727 461.958 449.178 463.875 451.156C465.792 453.134 468.167 454.123 471 454.123Z" fill="#222222"/>
<path d="M371 521.21V508.524C371 501.213 374.125 495.479 380.375 491.322C386.625 487.165 395.167 485.086 406 485.086C408.083 485.086 410.167 485.194 412.25 485.409C414.333 485.624 416.417 485.947 418.5 486.377C416.139 489.243 414.299 492.469 412.979 496.052C411.66 499.636 411 503.26 411 506.924V521.21H371Z" fill="#222222"/>
<path d="M405.956 474.765C401.819 474.765 398.292 473.258 395.375 470.244C392.458 467.23 391 463.607 391 459.374C391 455.014 392.46 451.328 395.381 448.318C398.301 445.308 401.811 443.802 405.913 443.802C410.138 443.802 413.708 445.29 416.625 448.266C419.542 451.242 421 454.93 421 459.329C421 463.599 419.558 467.24 416.675 470.25C413.792 473.26 410.219 474.765 405.956 474.765Z" fill="#222222"/>
<path d="M535.956 474.765C531.819 474.765 528.292 473.258 525.375 470.244C522.458 467.23 521 463.607 521 459.374C521 455.014 522.46 451.328 525.381 448.318C528.301 445.308 531.811 443.802 535.913 443.802C540.138 443.802 543.708 445.29 546.625 448.266C549.542 451.242 551 454.93 551 459.329C551 463.599 549.558 467.24 546.675 470.25C543.792 473.26 540.219 474.765 535.956 474.765Z" fill="#222222"/>
<path d="M531 521.21V506.724C531 502.861 530.34 499.22 529.021 495.803C527.701 492.386 525.861 489.243 523.5 486.377C525.861 485.947 528.049 485.624 530.063 485.409C532.076 485.194 534.056 485.086 536 485.086C546.833 485.086 555.375 487.165 561.625 491.322C567.875 495.479 571 501.213 571 508.524V521.21H531Z" fill="#222222"/>
<defs>
<filter id="filter0_d_662_1702" x="455" y="0" width="382" height="491" filterUnits="userSpaceOnUse" color-interpolation-filters="sRGB">
<feFlood flood-opacity="0" result="BackgroundImageFix"/>
<feColorMatrix in="SourceAlpha" type="matrix" values="0 0 0 0 0 0 0 0 0 0 0 0 0 0 0 0 0 0 127 0" result="hardAlpha"/>
<feOffset dy="4"/>
<feGaussianBlur stdDeviation="2"/>
<feComposite in2="hardAlpha" operator="out"/>
<feColorMatrix type="matrix" values="0 0 0 0 0 0 0 0 0 0 0 0 0 0 0 0 0 0 0.25 0"/>
<feBlend mode="normal" in2="BackgroundImageFix" result="effect1_dropShadow_662_1702"/>
<feBlend mode="normal" in="SourceGraphic" in2="effect1_dropShadow_662_1702" result="shape"/>
</filter>
<filter id="filter1_d_662_1702" x="0" y="113" width="382" height="491" filterUnits="userSpaceOnUse" color-interpolation-filters="sRGB">
<feFlood flood-opacity="0" result="BackgroundImageFix"/>
<feColorMatrix in="SourceAlpha" type="matrix" values="0 0 0 0 0 0 0 0 0 0 0 0 0 0 0 0 0 0 127 0" result="hardAlpha"/>
<feOffset dy="4"/>
<feGaussianBlur stdDeviation="2"/>
<feComposite in2="hardAlpha" operator="out"/>
<feColorMatrix type="matrix" values="0 0 0 0 0 0 0 0 0 0 0 0 0 0 0 0 0 0 0.25 0"/>
<feBlend mode="normal" in2="BackgroundImageFix" result="effect1_dropShadow_662_1702"/>
<feBlend mode="normal" in="SourceGraphic" in2="effect1_dropShadow_662_1702" result="shape"/>
</filter>
<filter id="filter2_d_662_1702" x="280" y="229" width="382" height="491" filterUnits="userSpaceOnUse" color-interpolation-filters="sRGB">
<feFlood flood-opacity="0" result="BackgroundImageFix"/>
<feColorMatrix in="SourceAlpha" type="matrix" values="0 0 0 0 0 0 0 0 0 0 0 0 0 0 0 0 0 0 127 0" result="hardAlpha"/>
<feOffset dy="4"/>
<feGaussianBlur stdDeviation="2"/>
<feComposite in2="hardAlpha" operator="out"/>
<feColorMatrix type="matrix" values="0 0 0 0 0 0 0 0 0 0 0 0 0 0 0 0 0 0 0.25 0"/>
<feBlend mode="normal" in2="BackgroundImageFix" result="effect1_dropShadow_662_1702"/>
<feBlend mode="normal" in="SourceGraphic" in2="effect1_dropShadow_662_1702" result="shape"/>
</filter>
</defs>
</svg>
