<svg width="36" height="36" viewBox="0 0 36 36" fill="none" xmlns="http://www.w3.org/2000/svg">
<g clip-path="url(#clip0_329_577)">
<mask id="mask0_329_577" style="mask-type:luminance" maskUnits="userSpaceOnUse" x="0" y="0" width="36" height="36">
<path d="M36 0H0V36H36V0Z" fill="white"/>
</mask>
<g mask="url(#mask0_329_577)">
<path d="M17.9688 18C22.1088 18 25.4688 14.64 25.4688 10.5C25.4688 6.36 22.1238 3 17.9688 3C13.8137 3 10.4688 6.36 10.4688 10.5C10.4688 14.64 13.8287 18 17.9688 18Z" fill="#FFDF20"/>
<path d="M29.0094 30.485C28.7694 31.37 28.0194 31.94 27.1044 31.94C26.1894 31.94 25.4394 31.37 25.1994 30.47L24.8094 29.015C24.5994 28.265 24.0294 27.695 23.2794 27.485L21.8094 27.08C20.9544 26.84 20.3694 26.09 20.3694 25.175C20.3694 24.725 20.5044 24.32 20.7444 24.005C19.8444 23.84 18.9294 23.75 17.9694 23.75C11.5644 23.75 6.25443 27.56 5.24943 32.54C5.06943 33.425 5.78943 34.25 6.70443 34.25H29.2344C30.1344 34.25 30.8544 33.425 30.6894 32.54C30.4644 31.385 29.9844 30.29 29.3244 29.285L29.0094 30.4985V30.485Z" fill="#FFDF20"/>
<path d="M32.3698 23.9549C32.3698 24.0599 32.3098 24.2999 32.0248 24.3899L30.5548 24.7949C29.2798 25.1399 28.3198 26.0999 27.9748 27.3749L27.5848 28.8149C27.4948 29.1449 27.2398 29.1749 27.1198 29.1749C26.9998 29.1749 26.7448 29.1449 26.6548 28.8149L26.2648 27.3599C25.9198 26.0999 24.9448 25.1399 23.6848 24.7949L22.2298 24.4049C21.9148 24.3149 21.8848 24.0449 21.8848 23.9399C21.8848 23.8199 21.9148 23.5499 22.2298 23.4599L23.6998 23.0699C24.9598 22.7099 25.9198 21.7499 26.2648 20.4899L26.6848 18.9599C26.7898 18.7049 27.0298 18.6599 27.1198 18.6599C27.2098 18.6599 27.4648 18.6899 27.5548 18.9299L27.9748 20.4749C28.3198 21.7349 29.2948 22.6949 30.5548 23.0549L32.0548 23.4749C32.3548 23.5949 32.3698 23.8649 32.3698 23.9549Z" fill="#FFDF20"/>
</g>
</g>
<defs>
<clipPath id="clip0_329_577">
<rect width="36" height="36" fill="white"/>
</clipPath>
</defs>
</svg>
