<svg width="80" height="80" viewBox="0 0 80 80" fill="none" xmlns="http://www.w3.org/2000/svg">
<path d="M52.9401 53.7339L57.6168 36.3532L43.5869 26.279L38.8063 43.6597L52.9401 53.7339Z" fill="#9ACBD0"/>
<path d="M52.9401 53.7339L57.6168 36.3532L43.5869 26.279L38.8063 43.6597L52.9401 53.7339Z" fill="#FFCD2D"/>
<path d="M22.9057 79.8604C20.7337 79.8604 18.8744 79.1039 17.328 77.591C15.7809 76.078 15.0074 74.1775 15.0074 71.8896V40.0065L28.9334 79.8604H22.9057Z" fill="#9ACBD0"/>
<path d="M22.9057 79.8604C20.7337 79.8604 18.8744 79.1039 17.328 77.591C15.7809 76.078 15.0074 74.1775 15.0074 71.8896V40.0065L28.9334 79.8604H22.9057Z" fill="#FFCD2D"/>
<path d="M7.52475 71.2254L4.41634 69.515C2.47016 68.5888 1.15066 67.1293 0.457821 65.1366C-0.235015 63.1439 -0.141482 61.1198 0.738419 59.0644L7.52475 43.549V71.2254Z" fill="#9ACBD0"/>
<path d="M7.52475 71.2254L4.41634 69.515C2.47016 68.5888 1.15066 67.1293 0.457821 65.1366C-0.235015 63.1439 -0.141482 61.1198 0.738419 59.0644L7.52475 43.549V71.2254Z" fill="#FFCD2D"/>
<path fill-rule="evenodd" clip-rule="evenodd" d="M44.3143 79.4176C42.1665 80.2294 40.2266 80.1925 38.4945 79.3069C36.7624 78.4212 35.5153 76.8345 34.7532 74.5466L16.982 22.7364C16.2198 20.4485 16.2372 18.3636 17.0339 16.4816C17.8307 14.5996 19.303 13.2527 21.4507 12.4408L52.0048 0.595349C54.1526 -0.216491 56.0925 -0.19804 57.8246 0.650702C59.5567 1.49944 60.8038 3.06777 61.5659 5.35568L79.4411 57.6086C80.2032 59.8965 80.1859 61.963 79.3891 63.8081C78.5924 65.6532 77.1201 66.9817 74.9723 67.7935L44.3143 79.4176ZM72.3742 60.2656L41.8201 71.8896L24.0489 19.9688L54.6029 8.12332L72.3742 60.2656Z" fill="#FFCD2D"/>
<path fill-rule="evenodd" clip-rule="evenodd" d="M44.3143 79.4176C42.1665 80.2294 40.2266 80.1925 38.4945 79.3069C36.7624 78.4212 35.5153 76.8345 34.7532 74.5466L16.982 22.7364C16.2198 20.4485 16.2372 18.3636 17.0339 16.4816C17.8307 14.5996 19.303 13.2527 21.4507 12.4408L52.0048 0.595349C54.1526 -0.216491 56.0925 -0.19804 57.8246 0.650702C59.5567 1.49944 60.8038 3.06777 61.5659 5.35568L79.4411 57.6086C80.2032 59.8965 80.1859 61.963 79.3891 63.8081C78.5924 65.6532 77.1201 66.9817 74.9723 67.7935L44.3143 79.4176ZM72.3742 60.2656L41.8201 71.8896L24.0489 19.9688L54.6029 8.12332L72.3742 60.2656Z" fill="#9ACBD0"/>
</svg>
