<svg width="36" height="36" viewBox="0 0 36 36" fill="none" xmlns="http://www.w3.org/2000/svg">
<g clip-path="url(#clip0_331_605)">
<mask id="mask0_331_605" style="mask-type:luminance" maskUnits="userSpaceOnUse" x="0" y="0" width="36" height="36">
<path d="M36 0H0V36H36V0Z" fill="white"/>
</mask>
<g mask="url(#mask0_331_605)">
<path d="M28.6648 7.43977C22.7998 1.57477 13.2747 1.57477 7.40971 7.43977C1.4397 13.4098 1.54471 23.1447 7.70971 28.9947C13.4097 34.3797 22.6498 34.3797 28.3498 28.9947C34.5298 23.1447 34.6348 13.4098 28.6648 7.43977ZM24.5697 24.9747C22.7698 26.6847 20.3998 27.5397 18.0298 27.5397C15.6598 27.5397 13.2897 26.6847 11.4897 24.9747C11.0397 24.5397 11.0247 23.8347 11.4447 23.3847C11.8797 22.9347 12.5847 22.9197 13.0347 23.3397C15.7798 25.9347 20.2648 25.9497 23.0248 23.3397C23.4748 22.9197 24.1948 22.9347 24.6148 23.3847C25.0498 23.8347 25.0198 24.5397 24.5697 24.9747Z" fill="#FFDF20"/>
</g>
</g>
<defs>
<clipPath id="clip0_331_605">
<rect width="36" height="36" fill="white"/>
</clipPath>
</defs>
</svg>
