<svg width="166" height="305" viewBox="0 0 166 305" fill="none" xmlns="http://www.w3.org/2000/svg">
<g clip-path="url(#clip0_2_112)">
<path fill-rule="evenodd" clip-rule="evenodd" d="M108.92 219.258L127.782 133.707C95.6866 137.819 105.121 176.605 90.7946 188.835C76.4681 201.065 60.4821 232.119 64.0092 237.737L108.92 219.258Z" fill="#9ACBD0"/>
<path fill-rule="evenodd" clip-rule="evenodd" d="M54.4601 271.013L88.3486 191.281L89.9982 178.352V141.472C60.882 142.383 78.1565 169.955 64.6587 189.148C51.1609 208.341 10.7061 242.985 9.00708 256.629L54.4601 271.013Z" fill="#9ACBD0"/>
<path fill-rule="evenodd" clip-rule="evenodd" d="M48.7435 268.78L59.0669 223.428V186.04C59.0669 173.81 59.9487 162.277 59.0669 150.367C34.7682 149.571 43.9733 170.257 41.1085 182.055L18.6379 274.621L48.7435 268.78Z" fill="#9ACBD0"/>
<path fill-rule="evenodd" clip-rule="evenodd" d="M155.22 146.771C158.292 146.607 161.698 147.386 165.578 149.317L128.947 220.695L53.247 291.298L20.6295 304.439L2.35281 244.482L8.45223 242.671C40.7515 232.829 72.5474 222.024 92.9318 212.187C128.603 194.968 133.709 147.898 155.22 146.771Z" fill="#48A6A6"/>
<path fill-rule="evenodd" clip-rule="evenodd" d="M89.0474 184.292C89.7463 204.559 71.8478 206.822 58.298 214.343C46.0682 221.131 47.2513 227.912 46.0682 232.513C34.7942 243.968 21.9329 261.791 12.3838 266.38L9.41578 267.503L0 236.558L1.96572 233.548C9.11465 221.486 19.7626 211.303 30.344 204.21C51.659 189.922 74.0222 186.389 89.0474 184.292Z" fill="#48A6A6"/>
</g>
<path d="M46.4535 27.3324C46.4535 37.328 42.4827 46.9142 35.4148 53.9822L35.0999 54.297C31.3154 58.0815 31.3154 64.2174 35.0999 68.0019L35.4148 68.3167C42.4827 75.3847 46.4535 84.9709 46.4535 94.9665C46.4535 100.17 50.6719 104.389 55.8756 104.389C65.8712 104.389 75.5384 108.44 82.6063 115.508C86.3294 119.231 92.415 119.281 96.1381 115.558C103.29 108.406 113.103 104.389 123.217 104.389C128.544 104.389 132.932 100.071 132.932 94.7439V94.2987C132.932 84.352 136.883 74.8127 143.916 67.7793C147.578 64.1177 147.578 58.1811 143.916 54.5196C136.883 47.4862 132.932 37.9469 132.932 28.0002V27.555C132.932 22.2283 128.544 17.9103 123.217 17.9103C113.103 17.9103 103.29 13.8926 96.1381 6.74115C92.415 3.01812 86.3294 3.06756 82.6063 6.79059C75.5384 13.8586 65.8712 17.9103 55.8756 17.9103C50.6719 17.9103 46.4535 22.1287 46.4535 27.3324Z" fill="#FFCD2D"/>
<defs>
<clipPath id="clip0_2_112">
<rect width="165.604" height="171.196" fill="white" transform="translate(0 133.299)"/>
</clipPath>
</defs>
</svg>
