<svg width="80" height="97" viewBox="0 0 80 97" fill="none" xmlns="http://www.w3.org/2000/svg">
<path fill-rule="evenodd" clip-rule="evenodd" d="M0 69.9815V96.8333H80V69.9815C80 67.0278 79.0208 64.4992 77.0625 62.3958C75.1042 60.2924 72.75 59.2407 70 59.2407H10C7.25 59.2407 4.89583 60.2924 2.9375 62.3958C0.979167 64.4992 0 67.0278 0 69.9815ZM70 86.0926H10V69.9815H70V86.0926ZM28.5625 30.8449C27.6042 31.8742 26.4167 32.3889 25 32.3889C23.5833 32.3889 22.3958 31.8742 21.4375 30.8449C20.4792 29.8156 20 28.5401 20 27.0185C20 25.4969 20.4792 24.2215 21.4375 23.1921C22.3958 22.1628 23.5833 21.6481 25 21.6481C26.4167 21.6481 27.6042 22.1628 28.5625 23.1921C29.5208 24.2215 30 25.4969 30 27.0185C30 28.5401 29.5208 29.8156 28.5625 30.8449ZM58.5625 30.8449C57.6042 31.8742 56.4167 32.3889 55 32.3889C53.5833 32.3889 52.3958 31.8742 51.4375 30.8449C50.4792 29.8156 50 28.5401 50 27.0185C50 25.4969 50.4792 24.2215 51.4375 23.1921C52.3958 22.1628 53.5833 21.6481 55 21.6481C56.4167 21.6481 57.6042 22.1628 58.5625 23.1921C59.5208 24.2215 60 25.4969 60 27.0185C60 28.5401 59.5208 29.8156 58.5625 30.8449Z" fill="#9ACBD0"/>
<path fill-rule="evenodd" clip-rule="evenodd" d="M25 53.8704C18.0833 53.8704 12.1875 51.2523 7.3125 46.0162C2.4375 40.7801 0 34.4475 0 27.0185C0 19.5895 2.4375 13.2569 7.3125 8.02083C12.1875 2.78472 18.0833 0.166664 25 0.166664H55C61.9167 0.166664 67.8125 2.78472 72.6875 8.02083C77.5625 13.2569 80 19.5895 80 27.0185C80 34.4475 77.5625 40.7801 72.6875 46.0162C67.8125 51.2523 61.9167 53.8704 55 53.8704H25ZM55 43.1296H25C20.8333 43.1296 17.2917 41.5633 14.375 38.4306C11.4583 35.2978 10 31.4938 10 27.0185C10 22.5432 11.4583 18.7392 14.375 15.6065C17.2917 12.4738 20.8333 10.9074 25 10.9074H55C59.1667 10.9074 62.7083 12.4738 65.625 15.6065C68.5417 18.7392 70 22.5432 70 27.0185C70 31.4938 68.5417 35.2978 65.625 38.4306C62.7083 41.5633 59.1667 43.1296 55 43.1296Z" fill="#FFCD2D"/>
</svg>
