<svg width="80" height="80" viewBox="0 0 80 80" fill="none" xmlns="http://www.w3.org/2000/svg">
<path fill-rule="evenodd" clip-rule="evenodd" d="M24.4792 76.875C29.3403 78.9583 34.5139 80 40 80C45.5556 80 50.7465 78.9583 55.5729 76.875C60.3993 74.7917 64.6354 71.9271 68.2813 68.2813C71.9271 64.6354 74.7917 60.3819 76.875 55.5208C78.9583 50.6597 80 45.4861 80 40C80 37.4306 79.7743 34.9306 79.3229 32.5C78.8715 30.0694 78.1944 27.7431 77.2917 25.5208L71.3542 31.4583C71.7014 32.8472 71.9792 34.2535 72.1875 35.6771C72.3958 37.1007 72.5 38.5417 72.5 40C72.5 49.0278 69.3403 56.7014 63.0208 63.0208C56.7014 69.3403 49.0278 72.5 40 72.5C30.9722 72.5 23.2986 69.3403 16.9792 63.0208C10.6597 56.7014 7.5 49.0278 7.5 40C7.5 30.9722 10.6597 23.2986 16.9792 16.9792C23.2986 10.6597 30.9722 7.5 40 7.5C43.3333 7.5 46.5278 7.96875 49.5833 8.90625C52.6389 9.84375 55.4514 11.2153 58.0208 13.0208L63.4375 7.60417C60.1042 5.17361 56.4583 3.29861 52.5 1.97917C48.5417 0.659722 44.375 0 40 0C34.5139 0 29.3403 1.04167 24.4792 3.125C19.6181 5.20833 15.3646 8.07292 11.7188 11.7188C8.07292 15.3646 5.20833 19.6007 3.125 24.4271C1.04167 29.2535 0 34.4444 0 40C0 45.4861 1.04167 50.6597 3.125 55.5208C5.20833 60.3819 8.07292 64.6354 11.7188 68.2813C15.3646 71.9271 19.6181 74.7917 24.4792 76.875Z" fill="#FFCD2D"/>
<path fill-rule="evenodd" clip-rule="evenodd" d="M24.4792 76.875C29.3403 78.9583 34.5139 80 40 80C45.5556 80 50.7465 78.9583 55.5729 76.875C60.3993 74.7917 64.6354 71.9271 68.2813 68.2813C71.9271 64.6354 74.7917 60.3819 76.875 55.5208C78.9583 50.6597 80 45.4861 80 40C80 37.4306 79.7743 34.9306 79.3229 32.5C78.8715 30.0694 78.1944 27.7431 77.2917 25.5208L71.3542 31.4583C71.7014 32.8472 71.9792 34.2535 72.1875 35.6771C72.3958 37.1007 72.5 38.5417 72.5 40C72.5 49.0278 69.3403 56.7014 63.0208 63.0208C56.7014 69.3403 49.0278 72.5 40 72.5C30.9722 72.5 23.2986 69.3403 16.9792 63.0208C10.6597 56.7014 7.5 49.0278 7.5 40C7.5 30.9722 10.6597 23.2986 16.9792 16.9792C23.2986 10.6597 30.9722 7.5 40 7.5C43.3333 7.5 46.5278 7.96875 49.5833 8.90625C52.6389 9.84375 55.4514 11.2153 58.0208 13.0208L63.4375 7.60417C60.1042 5.17361 56.4583 3.29861 52.5 1.97917C48.5417 0.659722 44.375 0 40 0C34.5139 0 29.3403 1.04167 24.4792 3.125C19.6181 5.20833 15.3646 8.07292 11.7188 11.7188C8.07292 15.3646 5.20833 19.6007 3.125 24.4271C1.04167 29.2535 0 34.4444 0 40C0 45.4861 1.04167 50.6597 3.125 55.5208C5.20833 60.3819 8.07292 64.6354 11.7188 68.2813C15.3646 71.9271 19.6181 74.7917 24.4792 76.875Z" fill="#9ACBD0"/>
<path d="M34.2708 58.0208L17.5 41.25L22.9167 35.8333L34.375 47.2917L74.6875 6.97917L80 12.2917L34.2708 58.0208Z" fill="#FFCD2D"/>
</svg>
