<svg width="37" height="37" viewBox="0 0 37 37" fill="none" xmlns="http://www.w3.org/2000/svg">
<path d="M7.05833 27.6833C8.61667 26.4917 10.3583 25.5521 12.2833 24.8646C14.2083 24.1771 16.225 23.8333 18.3333 23.8333C20.4417 23.8333 22.4583 24.1771 24.3833 24.8646C26.3083 25.5521 28.05 26.4917 29.6083 27.6833C30.6778 26.4306 31.5104 25.0097 32.1063 23.4208C32.7021 21.8319 33 20.1361 33 18.3333C33 14.2694 31.5715 10.809 28.7146 7.95208C25.8576 5.09514 22.3972 3.66667 18.3333 3.66667C14.2694 3.66667 10.809 5.09514 7.95208 7.95208C5.09514 10.809 3.66667 14.2694 3.66667 18.3333C3.66667 20.1361 3.96458 21.8319 4.56042 23.4208C5.15625 25.0097 5.98889 26.4306 7.05833 27.6833ZM18.3333 20.1667C16.5306 20.1667 15.0104 19.5479 13.7729 18.3104C12.5354 17.0729 11.9167 15.5528 11.9167 13.75C11.9167 11.9472 12.5354 10.4271 13.7729 9.18958C15.0104 7.95208 16.5306 7.33333 18.3333 7.33333C20.1361 7.33333 21.6562 7.95208 22.8938 9.18958C24.1313 10.4271 24.75 11.9472 24.75 13.75C24.75 15.5528 24.1313 17.0729 22.8938 18.3104C21.6562 19.5479 20.1361 20.1667 18.3333 20.1667ZM18.3333 36.6667C15.7972 36.6667 13.4139 36.1854 11.1833 35.2229C8.95278 34.2604 7.0125 32.9542 5.3625 31.3042C3.7125 29.6542 2.40625 27.7139 1.44375 25.4833C0.48125 23.2528 0 20.8694 0 18.3333C0 15.7972 0.48125 13.4139 1.44375 11.1833C2.40625 8.95278 3.7125 7.0125 5.3625 5.3625C7.0125 3.7125 8.95278 2.40625 11.1833 1.44375C13.4139 0.48125 15.7972 0 18.3333 0C20.8694 0 23.2528 0.48125 25.4833 1.44375C27.7139 2.40625 29.6542 3.7125 31.3042 5.3625C32.9542 7.0125 34.2604 8.95278 35.2229 11.1833C36.1854 13.4139 36.6667 15.7972 36.6667 18.3333C36.6667 20.8694 36.1854 23.2528 35.2229 25.4833C34.2604 27.7139 32.9542 29.6542 31.3042 31.3042C29.6542 32.9542 27.7139 34.2604 25.4833 35.2229C23.2528 36.1854 20.8694 36.6667 18.3333 36.6667ZM18.3333 33C19.9528 33 21.4806 32.7632 22.9167 32.2896C24.3528 31.816 25.6667 31.1361 26.8583 30.25C25.6667 29.3639 24.3528 28.684 22.9167 28.2104C21.4806 27.7368 19.9528 27.5 18.3333 27.5C16.7139 27.5 15.1861 27.7368 13.75 28.2104C12.3139 28.684 11 29.3639 9.80833 30.25C11 31.1361 12.3139 31.816 13.75 32.2896C15.1861 32.7632 16.7139 33 18.3333 33ZM18.3333 16.5C19.1278 16.5 19.7847 16.2403 20.3042 15.7208C20.8236 15.2014 21.0833 14.5444 21.0833 13.75C21.0833 12.9556 20.8236 12.2986 20.3042 11.7792C19.7847 11.2597 19.1278 11 18.3333 11C17.5389 11 16.8819 11.2597 16.3625 11.7792C15.8431 12.2986 15.5833 12.9556 15.5833 13.75C15.5833 14.5444 15.8431 15.2014 16.3625 15.7208C16.8819 16.2403 17.5389 16.5 18.3333 16.5Z" fill="#F1EDE7"/>
</svg>
