<svg width="200" height="76" viewBox="0 0 200 76" fill="none" xmlns="http://www.w3.org/2000/svg">
<g clip-path="url(#clip0_409_2610)">
<mask id="mask0_409_2610" style="mask-type:luminance" maskUnits="userSpaceOnUse" x="-2537" y="-37" width="3058" height="1721">
<path fill-rule="evenodd" clip-rule="evenodd" d="M-2536.18 1683.06H520.635V-36.3999H-2536.18V1683.06Z" fill="white"/>
</mask>
<g mask="url(#mask0_409_2610)">
<mask id="mask1_409_2610" style="mask-type:luminance" maskUnits="userSpaceOnUse" x="-4" y="-4" width="483" height="87">
<path d="M-3.99219 82.0522L478.21 82.0524L478.21 -3.91992L-3.99236 -3.92009L-3.99219 82.0522Z" fill="white"/>
</mask>
<g mask="url(#mask1_409_2610)">
<path d="M65.5429 12.3759L117.119 12.3759L117.119 43.3197L95.4819 43.3197L117.119 63.1228L98.7383 63.1228L77.5185 43.3197L77.5186 63.1228L65.543 63.1228L65.5429 31.6656L103.358 31.6656L103.358 24.1357L65.5429 24.1357L65.5429 12.3759Z" fill="#18181B"/>
<path d="M122.474 63.1228L135.079 63.1228L135.079 12.2731L122.474 12.2731L122.474 63.1228Z" fill="#18181B"/>
<path d="M21.5316 50.8487L21.5315 12.3758L11.6576 12.3758C9.87197 12.3758 8.50624 13.7177 8.50624 15.3659C8.50626 24.4455 8.40134 51.1583 8.40136 60.0283C8.40136 61.6787 9.7671 63.1227 11.4478 63.1227C18.2753 63.1227 37.9175 63.1227 40.7525 63.1227L40.7525 50.8487L21.5316 50.8487Z" fill="#18181B"/>
<path d="M47.2666 75.8096C48.4235 75.8096 57.2463 75.8096 60.1884 75.8096C60.1884 75.8096 60.1884 50.7457 60.1884 50.3333C55.9858 50.3333 51.5763 50.3333 47.2666 50.3333C47.2666 58.7909 47.2666 67.2484 47.2666 75.8096Z" fill="#18181B"/>
<path d="M27.8339 12.3756C27.8339 12.5835 27.8339 25.0616 27.8339 25.0616C33.6114 25.0616 40.9631 25.0616 47.2651 25.0616C47.2651 33.8313 47.2651 44.0414 47.2651 44.0414C50.2073 44.0414 59.03 44.0414 60.1869 44.0414L60.1869 15.4715C60.1869 13.8196 58.8193 12.4777 57.1412 12.3756C50.8393 12.3756 35.9215 12.3756 27.8339 12.3756Z" fill="#18181B"/>
<path d="M27.834 31.2498C27.834 35.4797 27.834 39.7096 27.834 44.1437C28.8844 44.1437 30.0399 44.1437 31.0903 44.1437C34.0328 44.1437 37.7068 44.1437 40.649 44.1437C40.649 44.1437 40.649 31.4577 40.649 31.2498C36.4464 31.2498 32.1407 31.2498 27.834 31.2498ZM36.8678 40.2237C35.6074 40.2237 34.1363 40.2237 32.9794 40.2237C32.561 40.2237 32.1408 40.2237 31.6155 40.2237C31.6155 38.4698 31.6155 36.8216 31.6155 35.0677C33.4008 35.0677 35.0825 35.0677 36.8678 35.0677C36.8678 35.1698 36.8678 40.2237 36.8678 40.2237Z" fill="#18181B"/>
<path d="M196.949 50.3332L196.949 69.3115C196.949 70.9616 195.478 72.3027 193.8 72.3027L174.473 72.3027L174.473 75.3967L196.949 75.3967L197.056 75.3967C198.631 75.3967 199.995 74.0559 199.995 72.4056L199.995 72.3027L199.995 50.3332L196.949 50.3332Z" fill="#18181B"/>
<path d="M3.15038 24.9598L3.15034 5.98002C3.15034 4.33183 4.41073 3.09203 6.09138 3.09203L25.419 3.09204C25.524 3.09204 25.524 2.98994 25.524 2.98994L25.524 0.101947C25.524 0.101947 25.524 -0.000152974 25.419 -0.000153012L3.15033 -0.000160995C1.36471 -0.000161635 -0.00102426 1.34174 -0.00102074 3.09203L-0.000976768 24.9598C-0.000976562 25.0619 0.103994 25.0619 0.103994 25.0619L3.04541 25.0619C3.04541 25.0619 3.15038 25.0619 3.15038 24.9598Z" fill="#18181B"/>
<path d="M191.486 24.9598L191.486 12.3759L140.542 12.3759L140.542 31.2499L140.542 43.9395L174.473 43.9395L174.473 50.23L140.542 50.23L140.542 62.9164L191.486 62.9164L191.486 31.3557L157.559 31.3556L157.559 24.9598L191.486 24.9598Z" fill="#18181B"/>
</g>
</g>
</g>
<defs>
<clipPath id="clip0_409_2610">
<rect width="200" height="75.8109" fill="white"/>
</clipPath>
</defs>
</svg>
