<svg width="80" height="83" viewBox="0 0 80 83" fill="none" xmlns="http://www.w3.org/2000/svg">
<path fill-rule="evenodd" clip-rule="evenodd" d="M11.875 38.9198L7.5 43.4352V7.95679H52.5V38.9198H11.875ZM0 7.95679V62.142L15 46.6605H52.5C54.5625 46.6605 56.3281 45.9026 57.7969 44.3867C59.2656 42.8708 60 41.0485 60 38.9198V7.95679C60 5.82809 59.2656 4.00579 57.7969 2.48989C56.3281 0.973999 54.5625 0.216049 52.5 0.216049H7.5C5.4375 0.216049 3.67188 0.973999 2.20313 2.48989C0.734375 4.00579 0 5.82809 0 7.95679Z" fill="#FFCD2D"/>
<path fill-rule="evenodd" clip-rule="evenodd" d="M11.875 38.9198L7.5 43.4352V7.95679H52.5V38.9198H11.875ZM0 7.95679V62.142L15 46.6605H52.5C54.5625 46.6605 56.3281 45.9026 57.7969 44.3867C59.2656 42.8708 60 41.0485 60 38.9198V7.95679C60 5.82809 59.2656 4.00579 57.7969 2.48989C56.3281 0.973999 54.5625 0.216049 52.5 0.216049H7.5C5.4375 0.216049 3.67188 0.973999 2.20313 2.48989C0.734375 4.00579 0 5.82809 0 7.95679Z" fill="#9ACBD0"/>
<path d="M80 82.784L65 67.3025H27.5C25.4375 67.3025 23.6719 66.5445 22.2031 65.0286C20.7344 63.5127 20 61.6904 20 59.5617V54.4012H60C62.0625 54.4012 63.8281 53.6433 65.2969 52.1274C66.7656 50.6115 67.5 48.7892 67.5 46.6605V20.858H72.5C74.5625 20.858 76.3281 21.616 77.7969 23.1319C79.2656 24.6478 80 26.4701 80 28.5988V82.784Z" fill="#FFCD2D"/>
</svg>
