<svg width="100" height="52" viewBox="0 0 100 52" fill="none" xmlns="http://www.w3.org/2000/svg">
<path fill-rule="evenodd" clip-rule="evenodd" d="M25 51.8025V45.2444C25 43.2475 25.5035 41.4224 26.5104 39.7689C27.5174 38.1153 28.8542 36.8585 30.5208 35.9985C33.5764 34.4216 36.7361 33.2211 40 32.3969C43.2639 31.5726 46.5809 31.1605 49.951 31.1605C53.3865 31.1605 56.7361 31.5726 60 32.3969C63.2639 33.2211 66.4236 34.4216 69.4792 35.9985C71.1458 36.8585 72.4826 38.1153 73.4896 39.7689C74.4965 41.4224 75 43.2475 75 45.2444V51.8025H25ZM38.9063 40.5677C35.2604 41.6786 33.1944 42.8433 32.7083 44.0617H67.2917C66.8056 42.8433 64.7396 41.6786 61.0938 40.5677C57.4479 39.4567 53.75 38.9012 50 38.9012C46.25 38.9012 42.5521 39.4567 38.9063 40.5677ZM49.9479 26C46.5104 26 43.5764 24.7457 41.1458 22.2371C38.7153 19.7286 37.5 16.6825 37.5 13.0988C37.5 9.5151 38.7153 6.46897 41.1458 3.9604C43.5764 1.45183 46.5278 0.19754 50 0.19754C53.4722 0.19754 56.4236 1.45183 58.8542 3.9604C61.2847 6.46897 62.5 9.53302 62.5 13.1525C62.5 16.7004 61.2847 19.7286 58.8542 22.2371C56.4236 24.7457 53.4549 26 49.9479 26ZM50 18.2593C51.4167 18.2593 52.6042 17.7647 53.5625 16.7756C54.5208 15.7865 55 14.5609 55 13.0988C55 11.6366 54.5208 10.411 53.5625 9.42192C52.6042 8.43283 51.4167 7.93828 50 7.93828C48.5833 7.93828 47.3958 8.43283 46.4375 9.42192C45.4792 10.411 45 11.6366 45 13.0988C45 14.5609 45.4792 15.7865 46.4375 16.7756C47.3958 17.7647 48.5833 18.2593 50 18.2593Z" fill="#FFCD2D"/>
<path fill-rule="evenodd" clip-rule="evenodd" d="M25 51.8025V45.2444C25 43.2475 25.5035 41.4224 26.5104 39.7689C27.5174 38.1153 28.8542 36.8585 30.5208 35.9985C33.5764 34.4216 36.7361 33.2211 40 32.3969C43.2639 31.5726 46.5809 31.1605 49.951 31.1605C53.3865 31.1605 56.7361 31.5726 60 32.3969C63.2639 33.2211 66.4236 34.4216 69.4792 35.9985C71.1458 36.8585 72.4826 38.1153 73.4896 39.7689C74.4965 41.4224 75 43.2475 75 45.2444V51.8025H25ZM38.9063 40.5677C35.2604 41.6786 33.1944 42.8433 32.7083 44.0617H67.2917C66.8056 42.8433 64.7396 41.6786 61.0938 40.5677C57.4479 39.4567 53.75 38.9012 50 38.9012C46.25 38.9012 42.5521 39.4567 38.9063 40.5677ZM49.9479 26C46.5104 26 43.5764 24.7457 41.1458 22.2371C38.7153 19.7286 37.5 16.6825 37.5 13.0988C37.5 9.5151 38.7153 6.46897 41.1458 3.9604C43.5764 1.45183 46.5278 0.19754 50 0.19754C53.4722 0.19754 56.4236 1.45183 58.8542 3.9604C61.2847 6.46897 62.5 9.53302 62.5 13.1525C62.5 16.7004 61.2847 19.7286 58.8542 22.2371C56.4236 24.7457 53.4549 26 49.9479 26ZM50 18.2593C51.4167 18.2593 52.6042 17.7647 53.5625 16.7756C54.5208 15.7865 55 14.5609 55 13.0988C55 11.6366 54.5208 10.411 53.5625 9.42192C52.6042 8.43283 51.4167 7.93828 50 7.93828C48.5833 7.93828 47.3958 8.43283 46.4375 9.42192C45.4792 10.411 45 11.6366 45 13.0988C45 14.5609 45.4792 15.7865 46.4375 16.7756C47.3958 17.7647 48.5833 18.2593 50 18.2593Z" fill="#9ACBD0"/>
<path d="M0 51.8025V45.4594C0 41.804 1.5625 38.9371 4.6875 36.8585C7.8125 34.78 12.0833 33.7408 17.5 33.7408C18.5417 33.7408 19.5833 33.7945 20.625 33.902C21.6667 34.0095 22.7083 34.1708 23.75 34.3858C22.5694 35.8193 21.6493 37.4319 20.9896 39.2238C20.3299 41.0156 20 42.8275 20 44.6595V51.8025H0Z" fill="#FFCD2D"/>
<path d="M17.4781 28.5803C15.4094 28.5803 13.6458 27.8266 12.1875 26.3193C10.7292 24.8127 10 23.0012 10 20.8847C10 18.7044 10.7302 16.8616 12.1906 15.3565C13.6503 13.8513 15.4056 13.0988 17.4563 13.0988C19.5688 13.0988 21.3542 13.8427 22.8125 15.3307C24.2708 16.8186 25 18.6624 25 20.8621C25 22.9972 24.2792 24.8174 22.8375 26.3225C21.3958 27.8277 19.6094 28.5803 17.4781 28.5803Z" fill="#FFCD2D"/>
<path d="M82.4781 28.5803C80.4094 28.5803 78.6458 27.8266 77.1875 26.3193C75.7292 24.8127 75 23.0012 75 20.8847C75 18.7044 75.7302 16.8616 77.1906 15.3565C78.6503 13.8513 80.4056 13.0988 82.4563 13.0988C84.5688 13.0988 86.3542 13.8427 87.8125 15.3307C89.2708 16.8186 90 18.6624 90 20.8621C90 22.9972 89.2792 24.8174 87.8375 26.3225C86.3958 27.8277 84.6094 28.5803 82.4781 28.5803Z" fill="#FFCD2D"/>
<path d="M80 51.8025V44.5595C80 42.6279 79.6701 40.8078 79.0104 39.0991C78.3507 37.3904 77.4306 35.8193 76.25 34.3858C77.4306 34.1708 78.5243 34.0095 79.5313 33.902C80.5382 33.7945 81.5278 33.7408 82.5 33.7408C87.9167 33.7408 92.1875 34.78 95.3125 36.8585C98.4375 38.9371 100 41.804 100 45.4594V51.8025H80Z" fill="#FFCD2D"/>
</svg>
