<svg width="221" height="221" viewBox="0 0 221 221" fill="none" xmlns="http://www.w3.org/2000/svg">
<mask id="mask0_700_1685" style="mask-type:luminance" maskUnits="userSpaceOnUse" x="80" y="46" width="62" height="131">
<path d="M141.005 46H80V176.068H141.005V46Z" fill="white"/>
</mask>
<g mask="url(#mask0_700_1685)">
<path fill-rule="evenodd" clip-rule="evenodd" d="M80 111.034H141.005L122.297 172.089H122.251L122.175 172.408L118.919 174.265C116.303 175.425 113.426 176.068 110.409 176.068C105.881 176.068 101.675 174.622 98.1846 172.148L96.8603 171.003L91.6215 148.963L80 111.034Z" fill="white"/>
<path fill-rule="evenodd" clip-rule="evenodd" d="M109.822 72.4573C103.225 72.4573 98.0196 87.3079 98.0476 92.6764C98.0755 98.0449 103.393 104.673 109.989 104.673C116.583 104.673 121.929 99.3022 121.929 92.6764C121.929 86.0506 116.415 72.4573 109.822 72.4573ZM109.166 46C121.801 46 132.363 72.0416 132.363 84.7346C132.363 97.4277 122.122 107.718 109.486 107.718C96.8503 107.718 86.6625 95.0202 86.6091 84.7346C86.5557 74.4491 96.5326 46 109.166 46Z" fill="white"/>
</g>
</svg>
