<svg width="43" height="42" viewBox="0 0 43 42" fill="none" xmlns="http://www.w3.org/2000/svg">
<path d="M5.38439 28.723C5.26766 28.4276 5.19799 28.0955 5.08729 27.7998C4.838 27.1337 4.46498 26.3775 4.04351 25.801C3.36307 24.8788 2.521 24.1039 1.71687 23.2947C1.11532 22.6893 0.273874 22.0012 0.134051 21.1134C0.0781403 20.7244 0.205008 19.9359 0.445427 19.6168C0.970483 18.92 1.76756 18.3025 2.36793 17.6509C2.71326 17.276 3.18452 16.9508 3.51439 16.5592C4.0303 15.9468 4.5152 15.2882 4.89296 14.5824C5.3098 13.7639 5.58707 12.6678 5.75303 11.7645C5.76665 11.6904 5.75712 11.0337 5.75724 10.9316L5.76262 8.9047C5.76792 7.45358 5.72604 6.07692 7.47324 5.54223C7.87507 5.48106 8.45547 5.4916 8.85858 5.51078C11.8085 5.65122 14.2784 5.52399 16.6904 3.5898C17.7464 2.74293 18.8091 1.33351 19.8863 0.555252C22.1584 -1.08648 23.9335 2.37586 25.4684 3.52394C27.4905 5.0873 29.2204 5.63652 31.7644 5.64864L33.6991 5.65882C34.6053 5.66432 34.9918 5.58589 35.7477 6.16546C36.7025 6.89752 36.5059 8.02842 36.4956 9.09039C36.4854 10.1794 36.4488 11.1228 36.5884 12.2003C36.6438 12.263 36.6683 12.2804 36.6767 12.3655C36.8067 13.6638 37.3729 14.9007 38.0737 15.9865C38.1886 16.1648 38.3553 16.362 38.5011 16.519C38.6517 16.681 38.6168 16.7637 38.763 16.904C38.8905 17.0531 39.1647 17.362 39.3141 17.4737C39.749 17.8392 40.2231 18.3961 40.5935 18.7217C42.5023 20.3996 42.3358 21.7491 40.4902 23.3601C39.4857 24.2373 38.0743 25.6972 37.466 26.9148C36.3094 29.0758 36.3923 31.2453 36.4109 33.6109C36.4163 34.3047 36.4581 34.9207 36.0191 35.5173C35.2894 36.5142 34.5013 36.3816 33.4159 36.3729L31.2234 36.3546C30.9432 36.352 30.4094 36.3338 30.1483 36.3602C30.1029 36.4237 30.1173 36.4012 30.0946 36.4794C29.9402 36.5232 29.688 36.5016 29.4606 36.5453C28.4296 36.7436 27.2186 37.0366 26.3417 37.6396C26.1053 37.7476 25.8816 37.8789 25.7032 38.0729C25.5609 38.2333 25.3638 38.3671 25.205 38.5159C24.4067 39.2634 23.658 40.0521 22.8968 40.8387C22.4491 41.3009 21.7545 41.8071 21.0919 41.8724C20.3953 41.9413 19.6478 41.462 19.1666 41.0065C19.0158 40.8639 18.8949 40.6912 18.7312 40.553L18.6107 40.5737L18.5729 40.5417C18.5742 40.518 18.5808 40.4285 18.5708 40.4172C18.1384 39.9303 16.9225 38.7018 16.4946 38.337C16.1515 38.0394 15.7877 37.7666 15.406 37.5204C15.1546 37.3352 14.8342 37.1616 14.5369 37.0662C13.8142 36.7946 13.177 36.5668 12.4119 36.4346C12.244 36.4054 11.9252 36.4498 11.8032 36.3724C11.8166 36.3389 11.8285 36.3096 11.8435 36.2771L11.8551 36.2523C11.742 36.2252 11.0636 36.2314 10.9163 36.2305L8.65012 36.2227C8.25028 36.2228 7.82087 36.2532 7.42414 36.2079C6.78816 36.1354 6.42407 35.5511 6.10808 35.4923C6.09798 35.4905 6.08773 35.4895 6.07757 35.488L6.05321 35.4404C6.10223 35.3864 6.09174 35.4015 6.12594 35.343C5.51864 34.3985 5.638 33.9183 5.64464 32.8247L5.65568 31.0032C5.65666 30.8084 5.67061 30.2535 5.61543 30.0863C5.53313 29.8371 5.5358 29.9023 5.55117 29.6086C5.54277 29.3904 5.45511 28.9256 5.38439 28.723Z" fill="#FDC801"/>
<path d="M22.4035 7.27773C29.9293 8.03091 35.4235 14.7367 34.6818 22.2638C33.9399 29.7908 27.2425 35.295 19.7144 34.5646C12.17 33.8325 6.65144 27.1176 7.39484 19.5745C8.13824 12.0314 14.8615 6.52295 22.4035 7.27773Z" fill="#F0ECE5"/>
<path d="M18.7539 20.8204C19.6432 21.0057 20.5748 21.195 21.4688 21.344C22.0829 21.4463 22.7667 21.5156 23.3912 21.5978C22.9651 23.2057 22.0649 25.1377 21.1456 26.5214C20.9274 26.8692 20.6765 27.2263 20.3647 27.4971C20.1746 27.6623 19.9079 27.8452 19.6446 27.816C19.511 27.8012 19.3945 27.7264 19.311 27.6228C18.657 26.8116 18.6502 21.9493 18.7539 20.8204Z" fill="#71717A"/>
<path d="M20.4492 24.903C20.8291 24.9415 20.9931 24.952 21.3096 25.1857C21.3474 25.276 21.3804 25.3805 21.4124 25.4739C21.1433 25.9889 20.58 26.5803 20.0998 26.9015C19.7101 27.1018 19.5416 26.9682 19.4428 26.5574C19.3539 26.1859 19.3173 25.6394 19.5321 25.3098C19.6385 25.1467 20.253 24.9376 20.4492 24.903Z" fill="#F0ECE5"/>
<path d="M14.6436 16.7424C14.6844 16.746 14.7252 16.7508 14.7658 16.7567C15.549 16.8754 16.3604 17.8948 16.809 18.4997C15.7833 18.1588 15.5395 17.5859 14.7721 17.2699C13.984 17.138 12.794 18.0467 12.3936 17.8787L12.3918 17.8143C12.6989 17.2525 14.0096 16.7394 14.6436 16.7424Z" fill="#00BBA7"/>
<path d="M29.3758 19.5109C30.2029 19.515 30.5677 20.482 30.8193 21.1411C30.3492 20.7468 30.0778 20.3004 29.5351 19.974C29.411 19.9757 29.2785 19.9864 29.154 19.9939C28.8335 20.0387 27.3957 20.5078 27.2438 20.3409C27.4042 19.9169 28.9422 19.5439 29.3758 19.5109Z" fill="#00BBA7"/>
</svg>
